<mxfile host="app.diagrams.net" modified="2023-03-26T16:55:14.072Z" agent="Mozilla/5.0 (Windows NT 10.0; Win64; x64) AppleWebKit/537.36 (KHTML, like Gecko) Chrome/111.0.0.0 Safari/537.36" etag="anRHwzFJyp-fZWqmV0x7" version="21.1.0" type="google">
  <diagram name="Page-1" id="w_ys0i3Y8fxBrrLxKNy2">
    <mxGraphModel grid="1" page="1" gridSize="10" guides="1" tooltips="1" connect="1" arrows="1" fold="1" pageScale="1" pageWidth="850" pageHeight="1100" math="0" shadow="0">
      <root>
        <mxCell id="0" />
        <mxCell id="1" parent="0" />
        <mxCell id="fPGUKrxtvbkCLrTihuDX-1" value="" style="group" connectable="0" vertex="1" parent="1">
          <mxGeometry x="-90" y="210" width="724" height="751" as="geometry" />
        </mxCell>
        <mxCell id="hOOozsf0WDHDU4rZZig0-1" value="" style="shape=image;verticalLabelPosition=bottom;labelBackgroundColor=default;verticalAlign=top;aspect=fixed;imageAspect=0;image=data:image/png,iVBORw0KGgoAAAANSUhEUgAAAtQAAALvCAYAAABFkFKeAAAAAXNSR0IArs4c6QAAAARnQU1BAACxjwv8YQUAAAAJcEhZcwAADsMAAA7DAcdvqGQAAGnCSURBVHhe7d1/eF1Xnd/7JTuJ4zhxIieOqZ2EIBECOFCCRMgQc5NeJH6V0GGoDZe5ZDpMIre0Q/L0D+S5lym4T/+Q+xfx006v3Sn3eeLS+yCX+aPxbSnSMJMZBEOQb4JJTH5J5JfjOCES+eHEiW2duz9L+ytvbe1zzt5nbR0dHb9fZnH2Xnvttdc+xzx8tLzOVkcl4gAAAAA0ZEX8CgAAAKABBGoAAAAgAIEaAAAACECgBgAAAAIQqAEAAIAAyz5Q79+/33V0dLjJycm4BgAAAGieZR+oDx486F8J1AAAAFgKwYF6dHTUl+np6bhmIWuTN/QWbQ8AAAAslbqBWjPAWlKRLKrbsWOHW7dunevv7/elu7t7brbY7Nq1a0Gb7du3Vw3fedvv3bt3biw6R9Q+OUb1AwAAACy2uoG6p6fHjYyM+DIwMODrFHIVZLdu3eqGh4fd4OCgD73JQK3ArdLX1+fGx8fdxMSEb6cwvG3btrjVGUXa67rpMQ0NDc3VWQEAAAAWnX71eF5RwNWvKfdlz549ce2sKATHW5VKFIZ9myj4xjVnRMF3wflF2yfZmKIAHdcAAAAAzdPQGmrNItvMsNFMttGTN0Szxmmade7q6pprI0XbAwAAAK2ioUCtJRe12NIPBeEsqteXDk3R9gAAAECraChQVwu+prOzM96qLtmmaHsAAACgVTQUqOuxwJ21TMO+vKhlI6Zo+zz01A99oREAAABYTIsSqLW+WjPKehJI+pF3epKH6pLLRoq2T8qaLVcA5znWAAAAaIYOfTMx3s6kMKuZXr1aULUALJo5zpo91jl6vJ4Cr75YqPaagVbR+Xv27Ilbzira3ig063nV+lKkzrPxaqx69F5W4AYAAADKUjdQK5j29vbGewtp5ljPos6i8K0ZZvUhCskKx1lP85Ci7Y0CtM1ki0K0AnjRZSIAAABAUXUDdRkUdFXyzhYXbW80W60QrgIAAAA0Q1MCNQAAANCuFuVLiQAAAMDZgkANAAAABCBQAwAAAAEI1AAAAEAAAjUAAAAQIFegvvDCC/kFKQAAAECGXI/NW7FiNnfPzMz4VwAAAACzWPIBAAAABCBQAwAAAAEI1AAAAEAAAjUAAAAQgEANAAAABCBQAwAAAAEI1AAAAEAAAjUAAAAQgEANAAAABCBQAwAAAAEI1AAAAEAAAjUAAAAQgEANAAAABCBQAwAAAAE6KpF4u6oVK2Zz98zMjH9Neunl4+43L78W7y10wfnnuSsv74z3AAAAgPYSHKjvHTvkRscfifcWWr/uYveNL38i3gMAAADaSymB+sGJ59wN7393XHPGo5PPuJdfO+7+9LZPxjUAAABAeyllDfVMFMlPnq4sKNF//DEAAACgXZUSqDXHffLUzIIyE6Xp+vPfAAAAwPIVtOSj3vrpEF/93M3u2qs2xHsAAABAawoO1D9/9Bn3nq6r4ppy/Gryaff7fb0EagAAALS84ED9wMRRd8P7Fn4hMcT9v3zEfeGWDyxKoJ6cnPQlqbOz0/X09MR7tenc6enp3O0BAADQ3oLXUCuPnzo9U2rJkfEbtnfvXtff3z+v9Pb2xkfrU1uVgwcPxjUAAAA4m5UQqJ07NRMF4RLLIuZpNzQ05AO7lb6+vvhIPl1dXXNlqe3fv991dHQsmHEHAABA8wQHaqXf03pEXollURN1oPHxcTcxMeGXiSw1myUnUAMAACyd4ECtVdVZs8whZeGvj8lHwXJ0dHSuaK3zUrOxFF0iYucBAACgtZUwQ+3c6ZlKqUV9FqEgrbXQ3d3d89ZGa1/LIkKtW7fOL61IlnoBWWu1dZ6Npdra623bts31qfHu2LFj3nmqS56jfq39rl27fJ3aWZ2KzgcAAEBzhK+hjv6cPj1TalGfeSlMW1Dds2ePX5KhtdGDg4N+hrrozHCWkZGRuaI12FJr9ltBd/v27X59ts6ZmpryY7PgnzxX/amNnhqi4zp3YGDA1w0PD/u2Ctlm69atc2NRO7E+kgUAAADNUeixeV//+tf9qzl10SZ3/tu6XPc7ro5ryjHx6yfdl/vzPYdaM7yahVaQTj7KTkFUs7kKoLW+QKiAq6UVOd4GT211jkJr1hcaFYo1q6zrKhAn2bkKwAr8STaO9DG7v6zxKWgrgFcbCwAAABZfoRlqzfYmy/PHnvffH8xathFScmZbH5oVNjVTm34utL40qGDa7KdxKMSLzWQnKfRqPLXWRqeDdis8TQQAAADVFQrUySUFKl/4whf84oysZRshJWeenlvO0Uq/ZMXGpFnq5LpmK5rBrrVcBAAAAMtL+BrqKP2emim35J2hbkX2OD3NNFcrtvYZAAAAy18pX0rMevRdSMn7pUSbmbZZ4TTNBGtGuJlsTFreoWUf6aIwvdjrnbUe25aeAAAAYHGVMkN9OgrBZZa8M9SaDVZAVXjMCpD6Qp/CZTNpPBqXnvKRFeY1Hh0rQ9b6av1woTXazf5BAgAA4GxV6CkfM1HYTbp37JD724eecus3bIxryvHisefcH33qhlxP+dAstEKqgmRy9ldfVlTREgvNDBu1U73RtsKn2hnNMuspHUZP0rB1z3pVeLfgLGqbXMeta1iQtzHpGrqWwq4eoad6sfEkx6G+VHQdC8iqV4C280TttVZbbXXcxqZz9Nsc+UIjAADA4gsO1H8TBep1698W15Rj6sXn3e05A7UoSCr0Kkxa8LXwmQzKYo+aq0VBWc+OFgutteg6CslJOk/XSoZ3jUnhPhnW7bF4SRbok8+fluS4jO5Z7ZL3rbEs9rISAAAAzAoP1L98yl18Wb7gm9fLvznmbv90/kCdpCCr4Gmzx61AM8bJGezF0Ir3DQAAcDYIDtR/9YtJt/qiS+Kacrzx6m/d9s/8TkOBGgAAAGim4EA9Ov5IvFeur37uZgI1AAAAWl5QoAYAAADOdrNJGQAAAEBDCNQAAABAAAI1AAAAEIBADQAAAAQgUAMAAAABCNQAAABAAAI1AAAAEIBADQAAAAQgUAMAAAABCNQAAABAAAI1AAAAEIBADQAAAAQgUAMAAAABCNQAAABAAAI1AAAAEIBADQAAAAQgUAMAAAABCNQAAABAAAI1AAAAEIBADQAAAAQgUAMAAAABOiqReLuqFStmc/fMzIx/TXr06WPusWeOxXsLXXrxhe4j13XFewAAAEB7CQ7U944dcvc9+IS7ZO2auOaM1994012wepX7xpc/EdcAAAAA7aWUJR9rL7zA9W6+dkHZcGlnFMLr5nUAAABg2SolUGuO++TpmQVlJjpQf/4bAAAAWL6Clny89PJxd+Cnv3SPPfsb13Xlprj2jKMv/sa9ceJNd9vHPxTX5Hflhk53warz4j0AAACgNQUFaq2fHh1/JN4r11c/d7O79qoN8R4AAADQmoID9YMTR92H3//uuKYcPzv0iNt2ywcI1AAAAGh5wWuolcdPz5RbcmT8qiYnJ93o6KgvBw8ejGsBAACAxVFCoHbu1OmZUktAnnZ79+51/f39vvT29sa1AAAAwOIID9TRn1MzURAusajPRg0NDfkZ7sHBwbimHPv373cdHR1+BhwAAAAwpcxQZy3bCCkhM9SLxZaPEKgBAACQVMIM9SIE6tmuC5meni60blrtFnOt9WL3DwAAgNYQHKiVfrNCcUgpkqgVpLdv3+7WrVs3t25ar7VmkpPtbFvn79q1K24xS+uxtcxDxY6pvdWp6Ly0vP0DAABg+Qt+bN79jz7rrul6R1xTjscnf+3+976euo/NU5hWYNUMsNZM9/X1+ToFV5sVzro9BWEZHx93XV1dvq3Cs9ZJDw8Pu61bt/rj6sv60TG10Rrtnp4eXyednZ3z9iVv/wAAAFj+CgXqj33sY/7VbHjPDe7qv/8R13X11XFNOSaffNJ9ub+3bqDWzLSC6sjIiA/TRkG4u7vbv2bdnoKtpIOtzlFAVhBO27Fjhw/q6WtlaaR/AAAALE+FAvUPf/hD/2oeeeENd/T1Fe7qt789rinHk0895W77eP1ArWUUmh1WyE2zsF3v9rTGWctDVBSE9Zp1TpFAnZS3fwAAACxPhdZQK0gmy9ujIK1omPXou5CSJ25qGYVmoNPLLYxmgqtRqFXg1tIMLRnRtsKy6suw2P0DAACgdQR/KVGzrVlfLAwpeWZwawXmWhTE9SVBzRZr3bVmnHU9lSIzz9Usdv8AAABoLSUE6qX5TYn6sp9CtX1pME1LLbJoGYhmtrWOWV8wDA25moFWn6bs/gEAANDawgN19Cdr2UZIyfsk6oGBAR+c7UuARvvVgrbCrmTNcNuxLArwabqGrZE2jfYPAACA5WnltyLxdlU7d+70r9/85jf9q3nsmWPuqRdedudfcKGfVS6rvH78NffBaza5yy6+ML5SNq2fVqDdvXu3O3HihK/TDPFdd93lA63qVBR4ba216vft2+dD9+rVq33I1bbucWxszLfROQrLmzdv9m1E5+k6hw8f9ttqq3OOHj3q7rnnnrkA3Wj/AAAAWJ6Cn0P9N798ynWur/00jqKmXzzmbv/0DXWf8iEKrHoChy27UKDVzLVeVW91U1NTflsUcHUsObOspRl6zJ36sdltLdtIfulRx3SezTRr1nrPnj0LlnU02j8AAACWn+BAfd8vn3QXX1puoH75pWPujk9/OFegTlJQLRJQFYxVspZz1KKgrJCuUkuj/QMAAGD5CA7UP3rgCXfu+RfENeU4eeJ1908/e1PhQA0AAAA0W9CXEi+9+EK3YuU57vTJt0ot6vOC88+LrwIAAAC0rqAZagAAAOBsFzRDDQAAAJztCNQAAABAAAI1AAAAEIBADQAAAAQgUAMAAAABCNQAAABAAAI1AAAAEIBADQAAAAQgUAMAAAABCNQAAABAAAI1AAAAEIBADQAAAAQgUAMAAAABCNQAAABAAAI1AAAAEIBADQAAAAQgUAMAAAABCNQAAABAAAI1AAAAEIBADQAAAAQgUAMAAAABOiqReLuqFStmc/fMzIx/TfrJQ5PuRw88Hu8tdMlFF7p/8bs3xXsAAABAewmeoX7p5dfc8TdOuLUXrllQFNWnX3ktbgkAAAC0n1KWfKxetcpd8/YrFpS1ay6IQnXdCXAAAABg2SolUCsznzw1s6Ccjg6QpwEAANDOgtZQP/r0Mffff/qQe376Vbd+XWdce8bLr77m3jp50m15X1dck99Hrut2l168Jt4DAAAAWlNQoL537JC778En3CVryw2+v33luLvj1pvctVdtiGsAAACA1hQcqB+cOOpueP+745py3H/oEbftlg8QqAEAANDygtdQK4+fPj1TasmR8auanJx0o6Ojvhw8eDCubY7p6ekluzYAAACWRgmB2rlTM5VSS0Cednv37nX9/f2+9Pb2xrXNkby2CgAAANpfeKCO/pyamSm1qM9GDQ0N+RnuwcHBuKZ5dE27tmarAQAA0P5KmaE+HYXgMkvIDDUAAADQTCXMUEeB+rTWUZdXGsnTtn656NplW/Ostdd5JNdoqyzGTLT13cg67MUcFwAAABYq5UuJWcs2QkqRLyUqOG7fvt2tW7dubt20XusF5F27ds2do9Ld3e37qRZE1Z+1s3Nsf//+/XGrbB0dHQtK1jlag50ck+5FJRmstZ3uS3U7duxYcD+NBHIAAAAUU86Sj4xZ5pCSN08r/Co8Kohq3fLIyIgbHh729bVCrsKnSl9fnxsfH3cTExP+fPWzbdu2uNUZCtMWbPfs2ePPSa6VrhdcNS5dS7TGO7lvFPAV6FWv41NTU/5aFuQt6Pf09PjjKgMDA75O5+n8rVu3+vvPOy4AAACEy/0c6qxmN936JXfLP/qS67r66rimHJNPPum+3N9b9znUCpIKwemAqjCpGVq9psetgKpjFj6TFEoVtBVkLayKQrYCuoK0Aq1R/7q++urqOvPbINWH+rJr2zjT/ZpaY9LyDQVqBXEF5SS7jqT7VphOjhUAAACLI/cMtZYW2MyolS9+8YtuJsqMWY++CynRf3JRyFWQTs/2dnZ2+nCaxWauFVDTFFgVjJOz2wrN2ldYTQdUXcfOqaZemBYdl6wx6d7Uv4J1NWqT7pswDQAA0ByFlnxYeLXy9re/3X8rMeuXs4SUPN9K1Ayswm614Kiwm8WWQVQLwenwau0bCagWpjWWWufbNTRLnV4fraIZbN1rNdV+eAAAAMDiK+EpH5pVzv5yYaMlz3M+qgXmevKc12jfabZMRCFd4bpaKLbraba7Wqk2uy21ZsgBAACwuEr5UuKp01GoLrHUX9U9GyIVRG12N63aEgkLn8llHUaBV/1p9t3YzHK16+gczSBn0bIYna9XtdGa5yx2DV1Xyz7SRWE6OSYAAAC0jlJmqLN+OUtIyTNDLQqaCs7pcKz9agFY5yiI68t86RljBV7VJZdQqK3O0dINW+ucpC8s6kuDWSwoqw992bBaHzYmzWJnhXP1r2MAAABoPSu/FYm3q9q5c6d//eY3v+lfzWPPHHNPvfCyW7X6Qv9FwrLKG8dfcx+8ZpO77OIL4ytlU2BVoN69e7c7ceKEr1Ngveuuu3xAVZ2KQqqF29WrV/tjaqfgrX0d1z3u27fPh1stsUjasmWLv47OOXr0qO/z8OHD/pwDBw74czSDrH4U1BXmtZ28tl51jvpQvYL75s2bff8ag87XMRUL+rqmQr7605jUj47pfnVdu47OHxsbm5uVZwkIAABA8+R+bJ7MzMz4V3Pv2CH3N798yl1y2dvimnL89jfPu9s/fUPdx+aJAqZCp4Ko2IyyXm2Jhbb1XOekZFgVO09LLLLoOgrLycCr4JoM4Dpu1zR2bXv0nlE41vrqJIVjnZ9sp2toTDZrrvHqmdjVZD16DwAAAIsnOFDf98sn3dp19YNvEa9MHXN3fPrDuQJ1ksKmzUTnpXCsUmRWV8FXQVllsTRyLwAAAGi+4ED9lwcfcyvPPS+uKcfpk2+5f/a7Hy0cqAEAAIBmCwrUjz59zK+jXgwfua7bXXrxmngPAAAAaE1BgRoAAAA4280mZQAAAAANIVADAAAAAQjUAAAAQAACNQAAABCAQA0AAAAEIFADAAAAAQjUAAAAQAACNQAAABCAQA0AAAAEIFADAAAAAQjUAAAAQAACNQAAABCAQA0AAAAEIFADAAAAAQjUAAAAQAACNQAAABCAQA0AAAAEIFADAAAAAQjUAAAAQAACNQAAABCAQA0AAAAE6KhE4u2qVqyYzd0zMzP+NenesUNudPyReG+h9esudt/48ifiPQAAAKC9lBKof/7oM+7d77gyrjnj6ItT7vUTb7o/vY1ADQAAgPZUypKPc1audBevvWhBWRnV58jrAAAAwLJVSqCeiTLzyVMzC8rp6ICOAQAAAO0qaMnHTx6adD964PF4r1x/8Ikb3JWXd8Z7AAAAQGsKCtRaP/2Th3/tNq6/NK4px3MvvuT+ySdvdNdetSGuAQAAAFpTcKB+cOKou+F9745rynH/Lx9x2275QEOBenJy0hfp7Ox0PT09fhsAAABYDMFrqJXHT0VBu8ySI+NXtXfvXtff3+9Lb29vXAsAAAAsjhICtcsMxSElIE+7oaEhH8gHBwfjGgAAAGDxhAfq6M/p0+UW/QEAAACWg7aZoZ6ennajo6Pu4MGDcU0+OkfF1l3Xo3Z2joquW43GYu20rbZFxwcAAIDWVsIMtfPPmy6zFMnTCqnbt29369atm1s3rdd6AXnXrl1z56h0d3f7fqoFZPVn7ewc29+/f3/capb2VW9jUdG21QEAAKB9lPKlxKxlGyEl75cSFX4VVvVFRK2ZHhkZccPDw74+HXKTduzY4UtfX58bHx93ExMT/nz1s23btrjVGQrTCsKaXd6zZ48/x9Zpp2ed1VbBvKury49FfatoGwAAAO2n0GPzvv71r/tXc+qiTe78t3W7d3ZdHdeU44nJJ92X+3vqPjZPwVUhWEFa4dgo5Go2WK/p21Pg1bGtW7cuCLmatVbQVmgeGBiIa50P2QroCtLJx/Cpf11ffSlAi5Z3KOSnxyTqW9fI+wMDAAAAWl+hQP2xj33Mv5oN77nBvf39H3HvuLrcQP3rJ590t328t26g1pINBVyF1zQL2+nbs9CsWWMLwUkK26q3PhWadR0FbAXteizM6xnYOkfjU9G+jinQ82xsAACA9lFoyYdCZrJ84QtfiNdQz5Ra8szf2pf8qoVTBdgstjwjK0yL6jXLbKx93hCs6+q9UXsFd81WK5ArZGu/2rgAAACwPJWwhnoRvpSYI1E3GkzznBcaehWmtZxEs+MK15rZ1rIQBXVbiw0AAID2EB6ooz+nTs+UWvI850MzyQq+1cJpcpY5yWams760qBlv9Zdc+2wz09WuY8s4jNp1dHTMXV99aemHfuGM1mBrzFp2AgAAgPZQygx11rOkQ0qeGWpRUFVwzXpsXbUArHMs1CoMJ2lJhuo0m2zUVudoPbZKmr6wqGUdxvrMCs3qSyV9XQAAACxfJQTqSuaj70JKju9JenpsnWaQFWoVhhWu9ap9BVfRfjIIq16zxQrcWn6hYwrgOkfbCs/JQC1qr+voi44qam/n6Jrp9qJ6e6SfthWwta/r6hoAAABoD4We8jEzM+Nfzb1jh9zfPPSUW7f+bXFNOaZefN7d/qkb6j7lQzTbmwzNNqOsV9Vb3dTUlN82Fr5tJtvOU3jOousoFOs6NsOs5SM6R8HeWJBWP2qbXA6iUK62WQEcAAAAy1N4oP7lU+7iy+oH3yJe/s0xd/un8wXqJIVjW/Ocl8KxSrWnfmRRSFYAV8mi/uyYtnlUHgAAQPsKDtT3HXrSXbju8rimHK9NveDu+IcfLhyoAQAAgGYLDtSj44/Ee+X66uduJlADAACg5QUF6pdePu5+8/Jr8V65rtzQ6S5YdV68BwAAALSmoEANAAAAnO1mkzIAAACAhhCoAQAAgAAEagAAACAAgRoAAAAIQKAGAAAAAhCoAQAAgAAEagAAACAAgRoAAAAIQKAGAAAAAhCoAQAAgAAEagAAACAAgRoAAAAIQKAGAAAAAhCoAQAAgAAEagAAACAAgRoAAAAIQKAGAAAAAhCoAQAAgAAEagAAACAAgRoAAAAIQKAGAAAAAhCoAQAAgAAEagAAACBARyUSb1e1YsVs7p6ZmfGvST95aNL96IHH472FLrnoQvcvfvemeA8AAABoL8Ez1C+9/Jo7/sYJt/bCNQuKovr0K6/FLQEAAID2U8qSj9WrVrlr3n7FgrJ2zQVRqK47AQ4AAAAsW6UEamXmk6dmFpTT0QHyNAAAANpZ0BrqR58+5v77Tx9yz0+/6tav64xrz3j51dfcWydPui3v64pr8vvIdd3u0ovXxHuoZXJy0k1PT7uenp64BgAAAM0SFKjvHTvk7nvwCXfJ2nKD729fOe7uuPUmd+1VG+Ia1LJu3TofqMfHxwnVAAAATRYcqB+cOOpueP+745py3H/oEbftlg8QqHPq7e2dC9SdnQv/paCV7d+/323bts1NTEy4rq7i/5IBAACw1ILXUCuPnz49U2rJkfGRoCCtQLrcwrQcPHjQv2rZCgAAwHJUQqB27vRMFKpLLI3m6dHRUV8spC0GzQQXuUbomOx8XTeUjT3Zl/bzhFkbR5H7sHMWg8aRHJPuqdH3GAAAIER4oI7KqSgEl1mK5um9e/f6dcT9/f2+aAmESjpgab+jo2Ne2bVrlw9l6XrVaSmC7Xd3d7sdO3bMXUf9q05LFrKEjEl1yWup6FrJc3Us67w0O2bjtb407uS9ZJ0ree6j1vtk10u2V5/WXu+/qJ3Vqej8LBq3+tMYkmOyOgAAgGYrZ8nHzEyppciSDwWy7du3u76+PjcyMuKmpqbcnj17/KyrwlZyNlZf2FOb4eFhvz8wMOCL6gcHB32dzlUb9Tc0NOS3dVz96VpqZ31oiYXCZDpUNzImFY1FdK762Lp1q7+OrpmegbVzVDROSfZrdFzX0LnqT/s2bhuf9hVy0/LeR9b7pHtRncavdgrZxsahYvdsfSRLmvrWeLTWWv1qmYuKfZ4AAABLIgqvdXV0dPiS9t9+/IvKn37nv1f+n799tNSiPh956vn4KtVFYUrJuxIFtLjmjCiQ+WNRUItr5ouCoT8+Pj7u+4lCZSUKrvHR+aJA6dtGwS2umRUFzEoU7nwxIWPS9XVcReNL0jirsX71mkXjT45R+7pfjV90XdUlNXIf9j6l69WH6rPYPVcbe1Kt+7R+AAAAmm1Zz1DbrKpmN9OicOdnMqut4bXZac3Uqmh2NaufJM2sJmlmNwpyfubUrhMyJqN2NnNrNL4Q6jNJ/Wn81YTch96TJLUtg43ZZvB1fZsl1zX15UwAAIBmK+VLiadOz5Ra8q74sCUQWj+bXH9rRUE3axmE0fIFBTS1aXTZgIVFC5ehY5J0cC9DrfCcpYz7KJvuYWRkdmmJlpBo2YnWWmuM2i96jwAAAGXIHag1a5wOVZoljI64rCd1hBT1mYcFKM1OVivpmd4khUYLhvVmjeuxsYSOScqa0Q1Rxn0sBoVp/fCjv48K1/qhSD+A6PNLf1kSAACgGXIHagVoBZhk+eIXv+iUf7Oe1BFSov/kYssgtARBSxPSRYEvvdTBKERr6YDaKJRpu14Yy5qRtSBu1wkZUytZ6vvQ7HP6i5L6fPT3MPmeaxwaj/1Sm9kf8gAAAJqn0JIPBZhkefvb3+4nk7N+OUtIyfvcPIUphSiFYc00pymU6VgWe+qEwphmOFXUttYyhnRYU8BT6NN7YQE0ZEytpFn3kTUbr/dVoTl9XftsskKzxqpS6/MDAABYDCu/FYm3q9q5c6d//eY3v+lfzWPPHHPPvPiyW3PRRW6mopnlcsqrr77iPvDOTe6yiy+Mr5Rt9erVPswq1KpYmFIYU2BWMNPSBAu7Oq570WPu1P62227zx9TP4cOH3b59+/w52lY427hxoz9P9Qp3Y2Nj7ujRo769zr/rrrv88XvuuWeubSNj2r17tztw4IA/puuoD13LZmKzQqdCpc5RG52nkjzPxq922j9x4oQ/rlcbl/bF7k/HtmzZ4uuK3Ie2dQ+6ttqpH+tf17f7Ur1e7d5F49S59p6rD31Gep/1vqrO6NzkZ2HX0eepc1SnH5A2b94cnwEAALD4/LPw4u2qVqyYnciemZnxr+besUNu7OGn3Ya/tymuKcexo0fcH37yQ+7aqzbENbUpYCnkJZ8HrRBqs89GwS79yz+0VEABT19us9AoOleBUTQbqyCpOgVEa6e+VZcVeEPGlKS26S9Mqm99Ea8WzTBrKUvyvnSfKgrIorCqe9Q4bV/Pmk7Kcx9Zz+LWdXTc+jZZ19B41M7Gqf41dgX6JH0G+ix0bZ2jsRldT/eSfG8BAACaIThQ//jhp9z6DbOzs2V58dhz7iufvCF3oE5SQFW4KpMFanuril5jMca0FBb7PhSQFbiTs9JpCt12XNs6px3eWwAAsHwVWkOdRRkz64uFIaV+xK+uGeGq6DXaJfAt9n1oZrpWmJbkcW0TpgEAwFIrJVBnPfoupIQEagAAAKCZwgO1nkOd8aSOkKI+W4GWE2iph63t1XZy3S4AAAAQvIb6Rw884c5ddUFcU46Tb77u/ulnb2poDXWZbO10kpYlTExMxHsAAAA42wUF6kefPuYfnbcYPnJdt7v04jXx3tLQzLS+iJekQK0CAAAASFCgBgAAAM52wWuoAQAAgLMZgRoAAAAIQKAGAAAAAhCoAQAAgAAEagAAACAAgRoAAAAIQKAGAAAAAhCoAQAAgAAEagAAACAAgRoAAAAIQKAGAAAAAhCoAQAAgAAEagAAACAAgRoAAAAIQKAGAAAAAhCoAQAAgAAEagAAACAAgRoAAAAIQKAGAAAAAhCoAQAAgAAEagAAACAAgRoAAAAIQKAGAAAAAnRUIvF2VStWzObumZkZ/5r00svH3W9efi3eW+iC889zV17eGe8BAAAA7SU4UN87dsjd9+AT7pK1a+KaM15/4013wepV7htf/kRcAwAAALSXUpZ8rL3oAtd73bULyobLOt1M/bwOAAAALFulBGpl5pOnZxYUhWnyNAAAANpZ0JIPrZ8+8NNfusee/Y3rvmpTXHvG0Rdecq+fOOFu+/iH4pr8rtzQ6S5YdV68BwAAALSmoECt9dOj44/Ee+X66ududtdetSHeAwAAAFpTcKB+cOKou/HvvzuuKcff/eIRt+2WDxCoAQAA0PKC11BXoj+nZsot+lPP9PS0Gx0d9eXgwYNxbbkmJycX/RoAAABY3sIDdZR9T52eKbXk+SLj3r17XX9//1xZDDt27Fj0awAAAGB5KyVQn56plFryBOrBwcGoXcW/arZ6MQwPD/tr9PX1Ldo1Wt3+/ftdR0eHn60HAADAQsGBWun39OlyS65EjaawpS4EagAAgGzBgVpfUzw1M1NqWfj7GFuHrd3Ou6Y6dA22nV9vhtza5WFtF3NdeJFrqE2yve51MccGAABQphJmqMtf8pHjO4lVaXlCumjZgmzbtm2urru729eJ1kpb/bp16+LahdROx7Weure31/dhfadpjbe1tfYq6aCofbu2FdUlr6Wia6k+fQ/V2mXJOya1s2vs2rXL16m91amonyx5ryF67zReHU+2tzoAAIDlIHwNdfQn64uFISXPUz6qGRkZ8WueZWhoKHO/p6dn3hKGgYEBX6/XWjPBCpdas622Wl/d2dnpA246VKvd9u3b/XXVdmpqyu3Zs8dfU6ExeQ2NRW3s+qJz1cfWrVv9dWyduEJp+h7UzsavtmqnkJ1WZEy6bnpMdt1kSStyDdWpbVdXlx/3xMSEL9oGAABYVvQc6no6Ojp8iYLSvPL7f/x/VP7PPz9Q+c7oQ6UW9fnIU8/HV68tCptK3/FepRIFQL8fBbm4ZiGNPevW030Zax+FvbhmVhQYK1Eg9MVEodC3jUJpXHNGFDL9sSicxjXz2fVV0uMfHx+Pt2bZmNJ96bqqTypjTGpXS9FrWF1Wv9U+BwAAgFZUaIZas6LJ8rYNb4tSj9ZQL3yWdEhp9DuJmvHUkgPNitrMapk0c5ukGeoo/PnZVq3/FV1fNKObFoVgPyNrbatRu/T49X5n0fWT1H9aGWOqp+g1dD96/2w2XsdsBlv3FP0A4bcBAABaXaFArbCULDffcrOfTs36YmFIaSRPW5hWSKsWPheDBVgLi7ZWWOuAk2uOrSh8J5c+ZEkH91BljKmeotfQ5zQyMrt0RUtUtCREa691vvZ1HAAAYDkIX0Otx+bNlFvUZ1Fax6xZTQVchevQgFiUBUB71SxrtVJv9jxrljlEGWOqp5FrKExrzbQ+b4Vr/cuCfpjQDyfVvsgIAADQakoI1M6dPj1TamlkyYfNdupVs6FZX8wLlRXSbWZayxrEZse1n57RV1GotLbNshhj0oyyLfOQotdQWNbMdfL9Uxu11Q9GCuhaCgIAANDqynnKR8ayjZDSyFM+LNApiGnWU2EvGfjqUViu9gg8kw54CoW6hsKgXV+hUGPQLLmCfZqCqI41U8iYsmbLdd8Kwsm+il7DfjjJCs3qR6XZ/8oAAADQiJXfisTbVe3cudO/fvOb3/Sv5rFnjrmnXnjZrb7gQj+rXFZ5/fhr7oPXbHKXXXxhfKWFFNoUxhTutH3ixAn/qmCr18OHD/uwq3oFs82bN8dnOn9sbGzMHxOFw7vuusvXS7Iv2bdvn9/XOUePHnWrV6/2fescueeee9zGjRv9to4pYFugt1Coa2jWXOPV8gfrW8d3797tDhw4MHcv6kPXstnbZKhVG7XXcZ1r96dzqr0fRceUpGCr6+m90bauq78Peh9036qTotfQ2JLvq92HfqhR/6rTbHXycwMAAGhFHXrUR7xd1YoVsxPZMzPzf4fhvWOH3N/88inXuf5tcU05pl983t3+6RvctVdtiGsWUnhML+tQuNOzj9PPhlaISz41QsFN5yr4GYVBBVers75E/Sn4aX2vrmthUfsKfVmzuGqvayTHoXZqn/zSoYJmrV9iorbJZzNnPfda96d21d4Pk3dMaXpPdJ7dt87Reme9Z2l5r6GgrVlr1at/nWd0PwrftcYEAADQKoID9X1RoL740urBtxEvv3TM3VEnUJdFgTZrZraWouc0co3F1siYFHoV0m1Wup5611BAt760rf5b7X0CAACoJzhQ/9UvJt3qCy+Ja8rxxmu/dds/8ztNCdQAAABAiOBAPTr+SLxXrq9+7mYCNQAAAFpeUKAGAAAAznazSRkAAABAQwjUAAAAQAACNQAAABCAQA0AAAAEIFADAAAAAQjUAAAAQAACNQAAABCAQA0AAAAEIFADAAAAAQjUAAAAQAACNQAAABCAQA0AAAAEIFADAAAAAQjUAAAAQAACNQAAABCAQA0AAAAEIFADAAAAAQjUAAAAQAACNQAAABCAQA0AAAAEIFADAAAAAQjUAAAAQAACNQAAABCAQA0AAAAE6KhE4u2qVqyYzd0zMzP+NenesUNudPyReG+h9esudt/48ifiPQAAAKC9lBKof/7oM+7d77gyrjnj6ItT7vUTb7o/vY1ADQAAgPZUypKPc1audBevvWhBWRnV58jrAAAAwLJVSqCeiTLzyVMzC8rp6ICOAQAAAO0qaMnHTx6adD964PF4r1x/8Ikb3JWXd8Z7y9fk5KSbnp52PT09cQ0AAADaSVCgtvXT7+m6Kq4px68mn3a/39frrr1qQ1yzfK1bt84H6vHxcUI1AABAGwpe8nHOOee4zovXllrUZ7vo6uqaK2Xbv3+/6+jo8LPgAAAAWBrBgVoT3KdOz5RackyaLxuamZ6YmHCdneUvXzl48KB/JVADAAAsnfAvJUbZ9/SMvoBYXlGfRSlcjo6O+qJtLbOwwFmLwqidp6Lz8mrknDzUn/rNM/6iGn2fAAAAkC14DfXBx46497/7mrimHIceedz9bx/7YK411Fr2sGPHjgWztJoRVlisdntqv337dh8sk3Tenj173NatW33Q7O3tjY/M0oyzrrl37965IK1zRkZG5tZI27rppGprqLdt2+b7Ey0L0XV37drl90V1Q0NDvl50XY27Fo1namoq3pvV6PsEAACA2sKXfETlVBS0yyx5o52FYoXO4eFhv7RCRdu16DwFZQVmhWeFXQXKwcHBeTO2CsAKyioDAwO+TtdT4FXA1XXS54ido6IwLOmAbXRc7XQtjUt9q0/VqX8F3mTo1nWtbxuT9ZEsSY2+TwAAAKivhKd8HHHvuabcL9z96vFJ9/t99WeoNbvc39/vA2RfX19cO0uzsQqnWbdnATU9a6zQqxlghdb0lwitP1EItzArCtNZs89Sa4xJaqO2Crk2Gy0ak82SKwQn2Zjq9d3o+wQAAID6SpihrrhTM+UW/clDIVYzuDZrrOBoM8Ga5VVgTtNxhWkF4nQIVl86Lx2mkxRIk2FaqoXpRiTDtNiYNMus+2tEI+8TAAAA8ikUqDWbmSz3/fV9ThObWcs2QkreyVKFRM26KjBqPJqF1frl7u5uv6/jacnlHI1IB95msIDfaKBu5H0CAABAPoUCtcJosjx/7Hm/VOD06XJLkeUHColaJqFzFBrtC4UKn7ZOuky1Zq8XW0jwbfb7BAAAcLYoFKgVxJLlC1/4gl+ckfXou5CSN04rBOoXm9jMrS3H0Jf0tIxBAdTWPRubma4WILUUQssrlootxUhK3l8emoHWWnDTyPsEAACAfMLXUEfp9/RMpdSSd4LawmdWGFRIVEkHVNUpTCpwJkOn0RcWFUiXSvpeFIY1ToXg9DKVrNlytVdwTv5Q0Mj7BAAAgHyCn/Ixdvhpt3HjFXFNOZ577ln3h5/4UO6nfIgCp5YwKGRaqFRJPzVDFB51ntopXNvMr76sqKIv6mn2Vu0UZvVqfaq9AqjoPDs3ScHVAqr1kTxP40mHY41H/Yva2nIMC/36F4H0OQrNWgeteo3ZrqWx6okgybXXjbxPAAAAqC84UP/44afdhr+3Ma4px7Gjz7mvfDJ/oFb4VZBMzspayKwWEhU+FXwtMItCpsKszhMFzvQvdklS3wqiSRZya9E1tIY5yQK17iUZyHUN1WXNRovGry8WJu9BfSeDfsj7BAAAgNqCA/XfPvSUW7+h3ED94rHn3B996oZcvylRQdJmfrWtsJieya1H59jSh6Vigdo+DoX5IvdR7x7KeJ8AAACwUPga6qhkPfoupNRN+AnJAKntRkKiZnWrBdGlUvQ+6t1DGe8TAAAAFgoO1Eq/WV8sDCmFEjUAAACwhMJnqCsVd+r0TKklxyqUtqGlF1rqYWugta06AAAALA/Ba6hHxx+J98r11c/dnGsN9XJna6eTtHxDT+kAAABA6wsK1C+9fNz95uXX4r1yXbmh012w6rx4r31pZlpfQExSoFYBAABA6wsK1AAAAMDZLvxLiQAAAMBZjEANAAAABCBQAwAAAAEI1AAAAEAAAjUAAAAQgEANAAAABCBQAwAAAAEI1AAAAEAAAjUAAAAQgEANAAAABCBQAwAAAAEI1AAAAEAAAjUAAAAQgEANAAAABCBQAwAAAAEI1AAAAEAAAjUAAAAQgEANAAAABCBQAwAAAAEI1AAAAEAAAjUAAAAQoKMSiberWrFiNnfPzMz416R7xw650fFH4r2F1q+72H3jy5+I9wAAAID2Ukqg/vmjz7h3d10Z15xx9MUp9/obb7o/vY1ADQAAgPZUypKPc1audJesvWhBWblipcuR1wEAAIBlq5RArcx88tTMgjITHSBPAwAAoJ0FLfn4yUOT7kcPPB7vlesPPnGDu/LyzngPAAAAaE1BgVrrp3/y8K/dxvWXxjXleO7Fl9w/+eSN7tqrNsQ1AAAAQGsKDtQPThx1N7z/3XFNOe4/9IjbdssHCNQAAABoecFrqJXHT52eKbXkyPgAAABASwieof7/Hn/OfWDzNXFNOR58+HH3xf/1+kIz1AcPHnTT09N+u7Oz03V1dbnJyUnX09Pj66oZHR31rzqnXts0O1fn6fyytOKYAAAAkC18hjr6c/p0uUV/8tq/f7/r7u52vb29rr+/3xdtW101e/fudevWrZt3joqCudF2R0fHvKK6HTt2zDtX11L9rl27MtuL+k7Wb9u2zdcnLcaYAAAAsLhKWPLh3KmZmVJL3hUfmoHevn27n40eHh52ExMTvmi7FgVfndfX1+dGRkbc1NSU27Nnj+9PYdRmujXLq+MqAwMDvk7n6fytW7f66wwODvr2Cq9qo7bq1/q2GWb1r7ai+qGhIb9tFmtMAAAAWFzBSz5+/tgR955ruuKacvzq8Un3+x/7YN0lH1reoLCpcKkgmqQZW4XM9O0poGr21sJnkvWnsGvh11h/oqBrYVYUXJNLMzTTrPYKxUk2K52+bjPGBAAAgMVRypcSs5ZthJQcGd9TYNQ6YZuhVfi0mVyFz/Hxcb+dpLAr6RliUSjXbLetQ86iNsngKungqmCscWg5irH9dPCXZowJAAAAi6NQoFaoS5annnpqSZd8KExrdlrhUbO1msnVOmLN9mo/60t5tgxCbdJrkVU0W2yhPIvCcj26rtolQ7CF66zzmzEmAAAALI7cSz6ymt1065fczf/oS67r6qvjmnJMPvmku62/t/BzqBVgFT5VFGAVQi1wGy270LH08okkzQinZ3xteUXW8pIsmnXWzLmWfShgV1vuIc0aEwAAAMqXO1BrpvT06dNxzSytof7pr55xV191VVxTjiefftr9wcfrB2rN7OopGFmBUmFaxxSmkyFWAVRBtFoIVRgXBdikouFV19dsudY2awbZttOhWJo1JgAAAJSvpKd8VEoteZd82DIIhco0zQqrpJdKKNCqXrPHFlSTtGxEx0Ill31o9tn2szRrTAAAAChfeKCO/mT9tsOQUuQ51KLQqtCpZRbaVsDWvmaw0zPCCq6a0bUZbM3y6hydq3MUaC34qo3NHts6Z4Vj7dt5tWjWWO1V1KeunaWZYwIAAEC5gpd8jD38tNvw9zbGNeU4dvQ594ef/FDux+bp6RgKn8nZXS310JrkarPCaqsAqjBqtKRCfdk5tqSkGrXLWhNtFH71RUO95lmW0YwxAQAAoFzBgfrHDz3l1m8oN1C/eOw595VP3ZDrS4kKqzbzq22F0qKPjFNILXrOYmvFMQEAAGChEpZ8LMJj82a7ziW5jELbjYTQVgyuhGkAAIDloZQvJZ6eqZRa8n4pEQAAAFhqJQRqfSmx3JJjFQoAAADQEoLXUP/lwcfcynPPi2vKcfrkW+6f/e5HC/9iFwAAAKDZggL1Sy8fd795+bV4r1xXbuh0F6wqN6gDAAAAZQsK1AAAAMDZLngNNQAAAHA2I1ADAAAAAQjUAAAAQAACNQAAABCAQA0AAAAEIFADAAAAAQjUAAAAQAACNQAAABCAQA0AAAAEIFADAAAAAQjUAAAAQAACNQAAABCAQA0AAAAEIFADAAAAAQjUAAAAQAACNQAAABCAQA0AAAAEIFADAAAAAQjUAAAAQICOSiTermrFihWuo6PDnT59Oq6Z796xQ/FWto/1vttdsOq8eA8AAABoH6UE6jvvHnZXrO90q88/N6454/FnXvDH/vnnbyZUAwAAoO2UFqjv+OxH3TVXXB7XnPH1P/u+Wx0F6UvXriFUAwAAoO00ZQ3152+53r/+++/f515/8y2/DQAAALSD0gK1Jrqzipx/3rnu9lu3uKjG/bvv/zWhGgAAAG2jaU/5WL3qXHfHrR/124RqAAAAtIumPjavHUL15OSkO3jwYLy3OJpxDQAAAJSj6c+hXu6hure315fFDLzNuAYAAADKUWqg1orpdDHJuvOjUH37Mg3VXV1dc6WW/fv3+yejaLa5qLzXAAAAwNJr+gy10Uz1cgzV4+PjbmJiwnV2dsY12Wx2uZFAnfcaAAAAWHpLFqhlqUO1wu7o6Ohc6J2envb7KtpeDhq9B2uTl7Vv5AcEOzfPeFjmAgAAlp1KDh0dHZUVK1bEewt97dvfqxyaOFJ5/c2TC0qtY1ZeeuX1yq7v/k9fjp94M+518UxNTVX6+vqSq1D8fmdn59x+T09P3Loyr97K+Ph4fPSMPXv2LGiXLuorS95rmLz3sHXr1rn9rq6uyuDg4Lw2qqt1naGhoQVjGxgY8Nc3Oj95XEV16WtpO30tvWfp/jXuWmMCAABoJaX9pkQ9Z/qdGb8pccd/+Au3af0lTr8tsZY33nzLHXnxt77t17/08bh2cfT39/uZ0CjwuSi8+e0dO3b4JRYjIyN+/bNmU6Ow59vruM2uWlu1iwKsrzNqYzOs6mPv3r0uCqT+GkbXSO6bvNcwee9BxzWrrGM2NtWpXx3fvn27P1/npOmcXbt2uSiU+3PUt+5JdTo/eY5ml8Xu28YUhW/fVts6T++p6kT7uob6V53O0fmqE5a9AACAZcHH6jryzFD/YuJI5fibJxeU79/3QO7yn394v+9rMUUh0M+CRgExrpmlfdXXmxm18/Vai/VXr12Wetew40XuIQq1/phmnJNsBjstCrO+XsfT1IeOaXY5zcaQdTw5rlr92/2lxwoAANCKyltDPRej5pdPfvi63OV9XZuikxaXzaSmZ35t32aJW1nIPUSBN96aVe1JIpopFs2wp6kPnWdtsmgsNhNtkjPzmsWWrP51rvq3+wQAAGhlpQVq/VrxKKCHFZ/CF5eFznRYs/3lsMSgGfdgy0OqBe56gVfLOGqx/ru7u/1yonTRMpXl8MMNAABA7kA9MzOTGXxUlhOb/dQMqYpCodby2rrg5Cxqq2rGPeQJ5bXaVAvixs7VbHe1kp7hBgAAaEW5A/XKlSv9l9CyynKjmU8FOn0hT1/u05fgFESHh4fjFotH17PlDiEW+x4sEGct69C1NcOs6zXKQr/60LKPdLEvMwIAALS63IFaM9EKOFmlFSjkKVhqCYEtJ6hGbfW0CT1FQj8Q2GueWdm8smZoNS7NJjfyLOe0xb4HBVr1pVlvXStJ4V119ZZ11GL96weCrPdDn6WOAQAAtLqV34rE21Xt3LnTPzrvX/2rfxXXzPeDnz3srn/XVW7d2jVxTWOmXj3uHnjsGfepGzfHNfmNjY35cSroKajVCvr79u3z7dVWYU5BV+XEiROZQVih8sCBAz4MW9vVq1f7PlSn623cuDFuPUt1u3fvdocPH/bbNr6jR4+6e+65x9clFb1G3ntQncZhbXVcr+pb19Rxna96vdrMsY7rmppN1yy19nVc96BrKxBrWYaoP11D47f+kmOX9Puq4/qMbNmK+hC1V2BXP+p/OSzBAQAAZ7lKDh0dHZVzzjkn3ltIj7p78IlnK6+98VZQUR+NPjZPv2gkCl+ZvzwkScfURreeVXQs+bg3e7xbrRKFy7j1fOonea0oVGY+Cq/oNYrcgz0WL1n0Pg3Fj75LFp2XpvGqfbJNFHTjo7M0nmQ/6ZL1aDyje0+PUe/T8PBw3AIAAKC15f7FLlpDffLkybhmPv1il6985ibXvWnhL3YpYuLIC+47B8bc3Xdui2vKpVlQLQnRzKiWS0ThMD4ySzOrmi3VzK2WT5S1nEX96lrp6zViqe5B11XJmsEvi2almZEGAADLTXnPoV4GFNgUCvWlt6xwq7CoYwp1tlShDOq3jDAtS3UPutZihmkhTAMAgOXorArUFkA1i1uNzcS2qna4BwAAgHZyVgVqzYDqyRT2mLnkDK5mfrVMore314dR+8Jdq2mHewAAAGgnpQVqrcQuoyw2PadZQVPrjBVK7ZfTKITas5z1CLqylmgshna4BwAAgHZR2pcS//Af6kuJ6+OaxkwcedH93//v4n0pMS29xlizv8sthLbDPQAAACxnpQXqjZdd4lavOjeuacwbb550z/3mt00L1AAAAECoUgL1vWOH4q1y3HrT++MtAAAAoLWVEqgBAACAs9VZ9ZQPAAAAoGwEagAAACAAgRoAAAAIQKAGAAAAAhCoAQAAgAAEagAAACAAgRoAAAAIQKAGAAAAAhCoAQAAgAAEagAAACAAgRoAAAAIQKAGAAAAAhCoAQAAgAAEagAAACAAgRoAAAAIQKAGAAAAAhCoAQAAgAAEagAAACAAgRoAAAAI0FGJxNtVrVixwq1cudKdPHkyrpnv0aePxVvZrr1qQ7wFAAAAtJdSAvWddw/HW9k+vPkd7kt9H4r3AAAAgPZRWqC+47MfdddccXlcc8bX/+z7/vXD741CdT+hGgAAAO2lKWuoP/0717lDE0fcfxn5eVwDAAAAtIemBOpN6zvdHZ/dQqgGAABA2yktUGvlSFaxY5suu8TdcatC9bOEagAAALSNpj42b9N6heqPEqoBAADQNpr+HGpCNQAAANpJqYFaCzzSxSTrNkah+vY4VH+XUA0AAIBlrLTH5t1+6xb3zozH5u34D39R9diRF3/r/vzev3Xv677C/X7BR+pNTk76Il1dXb4kTU9Pu4MHD/rtzs5O19PT47eLKKOPRum6+/fv99tbt26teW29DxprtTbJ98o0+34AAADa1ZIGamk0VO/YscPt2rXLbytMT0xM+G2zfft2t3fvXr+t4Dg+Pu63i1D/uo4ogE5NTfntxbZt27a5MG10f+kfGsy6det8oNY9ZoXk5HuVlOOjBwAAQB1NX0OdpjXVWv7xy4LLP4aGhtzIyIjf1uyrzSQbC6R9fX0NhWkZHBz0oVOvCqzNoOCrsSevrTBfi83QVwvceq/UlxW9JwAAAChHUwK1nj/9P/7uoapFa6k1g33/4V83tKZaSyKSM7raVgBejsFxdHTUvyoE26tmxquFZdEPDJrBrhe8AQAAUL7SArV94TBdFJSnXjnul3bUKm+8edLPVitUF6XgnAzUCqUK2bVoRlvtVNKz22VqxjWaoV3uAwAAoHSVHDo6OirnnHNOvLfQ1779vcovnjhSOX7iZFBRH+orr5GREZ/bp6am/Ov4+Liv7+zsrOzZs6cSBW1f0lSn9smic4aGhuIW8w0ODvo2Jn2uyvDwcHx0lq6vPpNtenp65saYlG6XLtEPB3HLM7LOyeo7i91/HkXuAwAA4GxU4gz1mTW6DRef14qLAt/cLLUt96g1Q62ZVtFSCS2n0Fpsna8v7yVnuqux9mJruW1ftA5aX4pUnY7pGlEw9Wu9+/v7F6zHVhsr9qXCZJ0t/0jKOl72Ou+i9wEAAHBWioJsXZqhVomCVWbRrPKDTzxbee2Nt4KK+mhkhlo0u9zV1eVnk21G18aXptnk9Iyy6HzNvqalZ6gHBgb8vmZv0yYmJvyxrFllG2+1mXDReJPXysP61Wseea4Reh8AAABni9wz1HpsnmZPs0or0Iy0Zk41wxwFxrg2m9qqiGar9Xg9ezxevTXC9jg+zdRGwTquPcMe1Zc1q6xx6cuFNkPeytrlPgAAABZboUCtcJVVWoECnkJyveUeouCtYNzR0eGXLmhbyxtUX4uFaS0xqfaDhAXy7u5u33+66BrLYalEu9wHAADAYiv1sXl+HUBACaVZY62LVuCtRkGxt7fXz2TrGc8jIyNa++BLvZltnaP+Fd4VrrMCpV1bfVcrWTPbraZd7gMAAGCxlRqol5pCoMJuLZphVhBWMNbser0QnaTwrZlpvWqG1paJJNnMtfpNz+SrKIQWueZSaZf7AAAAWGxtFajzsFnlrFnseksYLGTq3OHhYR/Oba2xUdDUcc1gZy0hsSUmra5d7gMAAGCxrfxWJN6uaufOnX4N9Te+8Y24Zr4f/Oxhd/27rnLr1q6Jaxoz/epx98Bjz7hP3bg5rqlOSzf27dvnX1evXu22bNkSH5ml5RkqCskbN250mzfP9qmQqPN0TOfpuLZ1j2NjY77NiRMnfL8XXnih+/a3v+23FSpVr1cFa70ePnzYB2rVqx9dQ31q5tbCtoV0fYFPM9rqS8slLJyL2mkMaqMx6Bz1qX21t36TtOb7wIEDc21U1Ebnq073qfsWHdu9e7evz7qGio3fNHIfAAAAZyX/rI86Ojo6KqtWrYr3FrLH5r36xltBpchj84aGhuYtwU7/opGurq65Y1Hoi2tn6ZF5yeMqUXj0j8FTW6v74z/+43ltVKKg6vvYunXrvPr0NfTYuXQbXTPrcX3qM9kuXdL3Zo+0q1UGBgbi1mce+1er2H2lFbkPAACAs1GH/isKSTWtWLHCnXfeeX5GM8uddw+7r3zmJte96fK4pjETR15w3zkw5u6+c1tcs7g066pSb911KM3mtsNMbrvcBwAAQJlKW0OtWK5sHlbizppEyyIWO0xLu4RQwjQAAMBCZ92XEgEAAIAylbbk40PvudqtXnVuXNOYN9486X7+qyebtuQDAAAACFVKoN79X/8q3irH1/7xP4i3AAAAgNZWSqAGAAAAzlasoQYAAAACEKgBAACAAARqAAAAIACBGgAAAAhAoAYAAAACEKgBAACAAARqAAAAIACBGgAAAAhAoAYAAAACEKgBAACAAARqAAAAIACBGgAAAAhAoAYAAAACEKgBAACAAARqAAAAIACBGgAAAAhAoAYAAAACdFQi8XZVK1ascOedd547ceJEXDPfvWOH4q1sH+t9t7tg1XnxHgAAANA+SgnUd9497K5Y3+lWn39uXHPG48+84I/988/fTKgGAABA2yktUN/x2Y+6a664PK454+t/9n23OgrSl65dQ6gGAABA22nKGurP33K9f/3337/Pvf7mW34bAAAAaAelBWpNdGcVOf+8c93tt25xUY37d9//a0I1AAAA2kbTnvKxetW57o5bP+q3CdUAAABoF019bB6hGgAAAO2m6c+hJlQDAACgnZQaqLViOl1Msu78KFTfTqgGAABAGyjtsXn60uE7Mx6bt+M//EXVY2+8edL9+b1/67f/xedvKfRIvenpaXfw4MF4b76+vr54a75a56RV62PXrl2+n8HBQdfZ2RnXzqrVf1dXly9pk5OTvkhWm2Sfup6Oh95DsyTvTWPv6enx2wAAAG1Fgbqejo6OyqpVq+K9hb727e9VDk0cqbz+5skFpdYxlZdeeb2y67v/05fjJ96Me6xvaGgoOek9r0ThzR9PGx4ezmyfVUZGRuKzzhgfH587ntV/FLLn9ZEuOp6WPCcKy3HtGQMDA3PHo0AafA/NlH4/AAAA2lHT11CnaU11I8s/NEMcjd9vayZW21NTUy4KnH4mdMeOHX42OWnr1q2+nc3cajtdohDqj2UZHR31r9VmiaOQ7fsQG5/1qWtrPNu3b/fHjc6xa2o2N93v/v37/avGHAX64HtoJns/9F4AAAC0q6YE6v/xdw+5P7/3x1XLd3/4M9/uyIu/9aG6UVpWoMCpQKnAmQ7UoRR4FaZ1DQvXeWgsCvoDAwNu7969cyE5Tf0mj2lbSz4sPAMAAKD1lBao5/3bfqLcfP27/PrpTesvqVnU5ob3vsOH6jJolrrImmmj8yyQpylE67hCtfq29cF5acZWob9a0Nc1k4Fa11PILqrWPRSl+9Q49Gq0X+ve7Zyi7z0AAMByVN4MdVaajsonP3xd7vK+rk3RSeWwwKdwmYdCrgKgAm9WELUArTBtfSo0FmEz6LpOMqAaHdM1LIgqXBcJxfXuIa+Ojg5fent7XXd3t+vv7/evGs+6dev8vo6lA7PuSUtakm30WvQHDwAAgOWkxBnqhWt5CxefwsMo1Gn9tMJfvbW7CsRW7JxqLDwrqFqgTgfKPGqda0FY41DRvdSboS5yD3lpdlvj1Bh1fe1rbNu2bfPjs30tXzEaq8Kz6vS+q42Wuai+jDEBAAC0qtyB+s0335ybuUyXpaYwaWPR7KhmarVeuV6gVgC0Uo8FYAvECpaNBGrNcIuCZhYL1BZmFVxrKXIPeWkMuq7GumfPHr+vbdXZvs2mG4V5jVlBWktbrI2FbwAAgHaVK1ArqF5wwQU+HGWVpaawp/CsYjO6Cnf1glyRe1B/CtPWp83gVgvGjbKgqlCtUFpPkXsoKn395P2n2XjT56i9fSYAAADtKPcM9cqVK+cCU7osNQVqzYqqaJmBXhV2k0sSsiTvQWG81r1oFlzh0JZXmOR2HhqXVAumuhcF0DzLPaTIPRRVbYxp9oOFzd6n5e0HAABgOSrvS4ktRMs9pMiX4WyZQhYLzXq15RX2pA4LyHlZ+2rhU7SsQs+cLhpEa93DYiIwAwCAs1lbBurQgKcv36kYC9QKuckvUWo2uUigtqUcmnmuNUYdU98h0vewmDRWjbnae1F0Fh8AAGA5KTVQp56YV7gsBoU5fVGxSPDV8oXk2mgFYQXG9Kyy9vOGRfVnAddm0BdT+h6M6jTDrsfgFZ1dr0X3pPci/UQP+4IlAABAu1r5rUi8XdW//tf/2p133nnuT/7kT+Ka+X7ws4fd9e+6yq1buyauacz0q8fdA4894z514+a4pjqFXC27GBsb8/snTpxwW7Zs8duye/du/3r06FHfxp74sXPnTr+vYKlzFALTRccVoG+99VbfXqFQ+6tXr54L1dZW49A1Nm7c6F91XZ2vtocPH55rd9ddd/l9LedIro1W2Ny3b59/1TnJexBdW0Xj1TVUitzDbbfdFvc0S/U6X+fqeNYSEb2v6kN9a0x61Xp0naN90Zh17/a+2w8Xun/Vic7Rfes6qlPRObWWuwAAACw7lRxWrFhRueiii+K9hb727e9VHnzi2cqrb7wVVNSH+spjaGhowST3xMREfLRSiYLrXP3AwICvGxkZmde+VolCb2V8fHxeXRQMfT+i48ljUWDPHJOVKERWhoeH47PPSJ+jayZ1dXXN66PoPaRNTU35fnQv6WsZHbM+1Fbvn+3rWHLMyfdEfafbpt+XZHsAAIB20KH/ioJOTXrCx5o1a9wrr7wS18x3593D7iufucl1b7o8rmnMxJEX3HcOjLm77yxn7a9mQ1WW4ot6ZzvNuDMTDQAAzgalraGem4IMLGXSl+UI00uDMA0AAM4W5X0p0Sfi6L+CymxXAAAAwHJR2pKPjZdd4lavOjeuacwbb550z/3mt6Ut+QAAAAAWWymB+t6xQ/FWOW696f3xFgAAANDaSgnUAAAAwNmqLX9TIgAAANAsBGoAAAAgAIEaAAAACECgBgAAAAIQqAEAAIAABGoAAAAgAIEaAAAACECgBgAAAAIQqAEAAIAABGoAAAAgAIEaAAAACECgBgAAAAIQqAEAAIAABGoAAAAgAIEaAAAACECgBgAAAAIQqAEAAIAAHZVIvF3VypUr3Zo1a9wrr7wS18z37/7ir+OtbB9811XuI9d1xXsAAABA+yglUN9597D79O9c5zat74xrzviP/+1v/esXPtZLqAYAAEDbKW3Jh8L0NVdcvqDIFdGx7/3luPvJQ5N+HwAAAGgXTVlD/anfuc59+L3vIFQDAACg7ZQWqCtV/tix37vlekI1AAAA2k5Tn/JBqAYAAEC7afpj8wjVAAAAaCflBepK9J+MknXsczdf724gVAMAAKANNH2G2vzeEoXqyclJNzo6Oq8cPHgwPlqfzi/SHgAAAO1tyQK1LEWo3rt3r+vv759Xent746P1qa0KoRoAAACypIFamh2qh4aGnH6XjZW+vr74SD5dXV1zZant37/fdXR0+FlzAAAALI3SArWtj06XWsesfO5/WT5rqsfHx93ExITr7Fz4WyGbzWbJCdQAAABLp7RfPf5Hn9ni3hn/ZsSkP/m//iLeyu/uO7fFW8UoWCbDZU9PT93gqyUfWked421oiPoWjUPjycvOqzWDvmPHDrdr1y43MjJSeKa9qEbuI889AAAALHsK1PWsWLGictFFF8V7C33t29+r/OKJI5XjJ04GFfWhvoqamJioRKFNiXheicJfZXh4OG6Vzc6rRf2k+x4fH4+PZtuzZ8+C86IguuC8rVu3zh3v6uqqDA4OzjtPdclz1K8dq1Z0flny3EfRexgaGpo7ZsWOq+9kvfoGAABoZUu+hjqUZqTtS4JR+PNLMqL7clGoc9PT06V8eVAzwFa0BlvUdzWaNd6+fbufmdU5U1NTfmwaq2bEk+eqP7XRrK+O69yBgQFfF/0w4NtqJtpEAXNuLGon1keylCHvfRS9Bzumfq1vnSvqX5+dqN7ebwAAgJY1m6tr0wz1mjVrKlHAySxLOUNts6PJGVCJwp+fCdXsdS15ZqiTdL9qr9csup6OZ82s2rkaV5qNI33M7i+LZoJrjSVEI/dR9B5s9jtN7bOuCwAA0Ipyz1AfP3587jFz6TLLZ6YSSn6a+dSTLjTjaTOcJgpqfqaz2U/j0GP5JAqV/jVJs7Eaj60tzmKzs6bZ4zch95H3HqLQPPcZGtvXNQAAAJaDXIH6nHPOcZs2bfJLKbKKpGNxo6UIW86RDtNLycbU3d3tH2mXLloSYUslWlkz7kM/9ChUJ4O5hWvVAwAALAflrqHOSshFShtQSBTN0lYrtva5lTXrPjQTrdlwC+cK1wrTdn0AAIBWt6y/lGgz09W+eKiQppnUZrIxKShquUS6KIQu9nIGLcOxJRuNatZ92Ey0ZqZZ7gEAAJajZR2oNYupYKfwmBUgt23blljj3Rwaj8alp2NkhXmNR8fKkLU2WT9caJa32g8SCq0ag5ZyVPtBRJp1H7qGLftQmLZ9AACA5WLltyLxdlX/5t/8G/+LXf7lv/yXcc18P/jZw+76d13lOteuiWsaM/3qcffAY8+4T924Oa6pb8uWLT6MKVAfPXrUnThxwh0+fNjt3LnTHThwYMFMqkLk7t27/TkqY2NjPmTqPKvT/ubNZ8agx8CpLx3T+SqrV6/256pOIXDjxo2+rep1PQv56kvUTo+O07laLpGcXdd4kuPQq/rRdXVcgVb1ek2uF9d1da7uV9vqQ/et9+Gee+7xdWnWRtfQ8WqzwUXuI+QeRG3VTsf1eRKoAQDAslLJ4bzzzqts2rQp3ltIj7p78IlnK6++8VZQUR+N/GIXPSIvCncLfpnIUMbj6dTO2lQr6sfY4+NqlSi0x63P0HlRMJzXTmNK/6KZdBuVKHD6safrk+My9ug5a6Nr1HqMnt4r9a9z0o8azJLnPkLvQWOye1iMRwACAAAsply/enzVqlVu/fr17tlnn41r5tOvHv/KZ25y3ZsW/urxIiaOvOC+c2Cs4V89LpoBjcJZ5uzsUtEMbXpWtmzNuO9m3AcAAMByU9oaasXyMkoorStupTAtzQihzbhvwjQAAMBCy/pLiQAAAMBSKzlQa4o5pAAAAADLS2lrqMsUsoYaAAAAaKZSAvWjTx+Lt8px7VUb4i0AAACgtZUSqAEAAICzFV9KBAAAAAIQqAEAAIAABGoAAAAgAIEaAAAACECgBgAAAAIQqAEAAIAABGoAAAAgAIEaAAAACECgBgAAAAIQqAEAAIAABGoAAAAgAIEaAAAACECgBgAAAAIQqAEAAIAAHZVIvF3VqlWr3Pr1692zzz4b18z36NPH4q1s1161Id4CAAAA2kspgfrOu4fjrWwf3vwO96W+D8V7AAAAQPsoLVDf8dmPumuuuDyuOePrf/Z9//rh90ahup9QDQAAgPbSlDXUn/6d69yhiSPuv4z8PK4BAAAA2kNTAvWm9Z3ujs9uIVQDAACg7ZQWqLVyJKvYsU2XXeLuuFWh+llCNQAAANpGUx+bt2m9QvVHCdUAAABoG01/DjWhGgAAAO2k1ECtBR7pYpJ1G6NQfXscqr9LqAYAAMAy1vQZaqOZaoXqXxKqAQAAsIwtWaAWQjUAAACWuyUN1FJmqJ6cnHSjo6NzZXp6Oj5SnbXVubWor3Sftc4r2j5J7fK2NXbOYrH+Dx48GNfUt9hjAgAAaAmVHM4777zKpk2b4r2Fvvbt71UOTRypvP7myQVFx/7zD++vfP++B2qW/3jvj+faFjUxMVHp6+tLLtP2pbOzszI8PBy3mm9oaMgfT7YfGBioTE1NxS38M/986enpmWtrfSb3x8fHG2qflmdMW7dunTvW1dVVGRwcnHeO6qr134g9e/YsGJPuL3mNomPSfdoxK3ZcfSfr1TcAAEArK22Gel4KSpR3XnG5m3rluDvy4m9rljfePOlnq+8//OvorPw0i9vb2+tnTqPw56Jg5p97HYU6PzucNaO6Y8cOX6IQ7ttHgdy337t3r9u2bVvcyrmRkREXBTzfRxTs/H4UFH0bnWv7Oq+R9kl5xxSF0bnr6N537drlotDt66Lg7u9Z/ZRBfW/fvn1u7FGw9++xrtvf3z83+150THZM/VrfOlfUv+5bVK++AQAAWtpsrq4tzwz1L544Ujl+4mRQUR/qqwibHU3OgIpmdTUTqtnrJO2rfdbMp82calbWRIHPz7Aa7Wv21WaNNRurOlO0vRQdk6gP1et4kr0foWqNKQq6mdcuOibdk96bNLXPui4AAEArKnGGeuFvSSxc/Jx2fpr53L9/v5/xtBlOo5lgzXRG4TaumaX2EoU+/5pk7a2NiYJivDVL11L/1RRt38iYjI4npe+3UTaLnjUm3Z+uU219dN4xRaF57jM0tp9+DwEAAFpV7kD90ksv+X/mzypLxZZzpMN0LXZOtZCXFRRrheEsRds3MqbFZmPq7u52HR0dC4qWdtiSj0bpfVKoTt6bhWvVAwAALAe5AvW5557rLr30Uh9cs8pykifsFg3EoVp5TJptrlb0LwOhNBOt2XAL5wrXCtPNvl8AAIBG5QrU559/vrvyyiv9P/9nlaViYd5mU9MU0jSTmmSzwFlLKNRefTV7uUErjsneW1036zNXmC5jTDYTrXvXvbLcAwAALDelraEW/82zgFKUZjEV7DTDmfXkDD0dI70kRe11np5EYbOiRk+iUF2zlxs0c0zqS++JlnJU+0FEbEx6ykf6hxJRHzoWStfQvWlmWmHa9gEAAJaLld+KxNtV/dt/+2/9ko/bb789rpnvBz972F3/rqvcurVr4prGTL963D3w2DPuUzdujmvq27Jliw9jCtRHjx51J06ccIcPH3Y7d+50Bw4cWDCTunr1ah/a1F4BTvsKjGq/b98+317LGUQBV32rT7XTqy1P0L7oHJ2vY2NjY4Xaa+yiY3nHpBC8e/dufy31q36sf41Xx61/vaaX5Og89atzdM1qs8HqT8c0JrsH0f0p5Os6GpP6Dx2T2qqdvScEagAAsKxUcojCdOXGG2+M9xbSo+4efOLZyqtvvBVU1EfRx+aJHkkXhbsFv0xkKPX4tiQ9+i0KdnPtda76SEr2p7ZRsJ3XXv0n94u2T8szpihszh23onOSfVvJuobeK7XXsfSjBrPo8Xnpa+q91S+rMWWMSfU6rvcAAABgOenQf0VBpqbLLrvMXXPNNe6nP/1pXDPfnXcPu6985ibXvenyuKYxE0decN85MObuvvPMLzIpSjOgUTjzJQ/NjqrYOuZW0IpjEs00R0E53gMAAICUuoa6FSiE5g3ToratFlxbcUxCmAYAAFio7QI1AAAA0EylBWotHNHqkbASdwYAAAAsE8xQAwAAAAFK+1Lih95ztVu96ty4pjFvvHnS/fxXTwZ9KREAAABoplIC9e7/+lfxVjm+9o//QbwFAAAAtLZSAjUAAABwtmINNQAAABCAQA0AAAAEIFADAAAAAQjUAAAAQAACNQAAABCAQA0AAAAEIFADAAAAAQjUAAAAQAACNQAAABCAQA0AAAAEIFADAAAAAQjUAAAAQAACNQAAABCAQA0AAAAEIFADAAAAAQjUAAAAQAACNQAAABCAQA0AAAAE6KhE4u2qLrvsMnfNNde4n/70p3HNfHfePRxvZfvw5ne4L/V9KN4DAAAA2kdpgfqOz37UXXPF5XHNGV//s+/71w+/NwrV/YRqAAAAtJemLPlQmP7Z4V+7/zLy87gGAAAAaA9NCdTvf+cV7vO3fJBQDQAAgLZTWqDWypGsYsdueM/V7vduvp5QDQAAgLbS1Kd8aOkHoRoAAADtpOmPzVvsUD05OelGR0d9OXjwYFzbHNPT00t2baCZkv874+88AOBsV2qg1gKPdDHJuhsSofq7JYfqvXv3uv7+fl96e3vj2uZIXlsFaFfpv+sqzf7fGwAAraLpM9TGQvX9JYfqoaEhv2Z7cHAwrmkeXdOurdlqoF3Z/86s9PX1xUcAADj7LFmglsUK1QAAAECzLGmglrJCta1fLrqO09Z/ak1oHum1o4sxE219N7ImdbHGVfS+rV2999U+t2R/ec4TOzfv+5R3TKI+rb22da0810mes9TS91BPyGcBAMBZrZLDpZdeWrnxxhvjvYW+9u3vVQ5NHKm8/ubJBUXH/sffPeyP1yr/+Yf3+7Z6LWJqaqoyMDCQXKJd6evrq2zdutVvVzM0NFTp7Oycd576UX9ZJiYmfL/J9irqY3h4OG41a3Bw0B8z6XNU0ufInj17Foypp6enMj4+Hreo+O3kcRXV6ZrJc7WdPK9RRe5b8ryvVq97s7bWX3I/OX77PFW6urrm3uNkXdZ4pMhnrT7UV7Ktip1fTZ7PriiNJdmfivWnvpP1en+Sqn1mei+S7FiRzyKLXQ8AgLNRaYH6F1EoPh4F6HTZ/V//KnfZ9d3/6fvKS4HIgoUC1sjIiA8CybCRxcKYQoiCgkKj1SkYpOm4QoWKgpOFCztHr0lWbzQuCxwKNNpPhznV25jsuIU0lWR7HVexHyTsfrWv+7fr6/wQjd53vfdVY0+OWfsWYu3+ta9jRn0lz1NR36pLfubaTso7JrH7Vb360b6KtlWvc7IU+eyK0HnqT/3q/dC20b3Yfahe40xSvYraJftRXfI9Un3RzyKL/f0GAOBsVF6gfiIK1CeiEB1Q1EeRQK3/k9f/iev/9JMUIKoFIAUPCwtpFozSQdSCiAVKo+vonHSYsaBjbJzVAm6tMenedEzXSbPrZPWdHGuyXbWiUJVW5L6Lvq8KYApqRvvJ8KkxpwOvWHBLB2edp/6SfRYdk73X6b9Pkv5MTaOfXRHWT/L9Fl0z67qi9yf9Honen/Rn3ehnkWSfCwAAZ6PSAvWDTzxbee2Nt4KK+igSqPV/+tX+j95CbJoFqXQ4MQoWyT4VKtS+3gxdUjJ81QvTYu3zjsnYefXCjoKV2tQq6iup6H0XfV+1nezbxmGqhTjV6TpZ9B7rmAXiRj5r/Z1Svc5VPxYq9Zr+wUIa/eyKUj/Jz8g+n1p/r4zuQ+10vvpJv38aXyOfRZKOp/sFAOBskftLic8//7zbsWNHZlkK9kWxnp6euGa+KBjFW/PZl7OiYOFf01SvL2IZa1/tOrVs377dP69XY6l1vl2ju7vbdXR0LCj6Uljyi2JpW7dujbey6XgUqmqWKEDGrWcVve+i76tU+4waZde26xQdk8aj90L3rL/XerbyunXr/Oei/azxhn52eUWB1/9dMvv37/fjqfbZ67r6+6cx6D60vWvXrqpfMCz7swAA4GySK1Bffvnl7m1ve1u81xoaDQB5zisrXCj0jI+P++CmQFMtWNn1BgcHqxYFqmqqBcZmaub7Wo9dp5ExKUwPDw9rqtWH6z179vjQquCtX1xiAdrY+VmfmZVan11e6kN/f/R3SjQejSvrHjVGjVVtdX3dh+5HpY/nRQMAULpcgXrTpk3u5ptv9rOYWWUpKEQqTKQDjknPhhoLnxZMkhRY1F8ydNgMbbXr6Jxqs34226lXtak2m2/X0HWz3l+FqWYHoaL3XfR9DaU+0+wzt+sUHZP2NaOb7EfvvT4D/WCkv2+a5U1q1mena6sv3YvGrtdq/WomW200Zo2hjOsDAIDqSn0OtV9EGVCKUsBQ+EkHJu1XC4I6x4JROpQp8Kou+c/oFmQUUpL/5G62bdvm/0k9i4Ut9aFZz2p92Jg0i50Vzu2f7Jup6H0XfV9DpYOtPm+NU+HR3veiY7I26b5F/aik+wn57NSXjmu5SLW/r0kaq/5ua3y6ZrX308aoNmnp8QMAgHArvxWJt6vat2+f27hxY9WZrh/87GF3/buucuvWrolrGjP96nH3wGPPuE/duDmuqU3BSYF69+7d7sSJE75Ooequu+7yYUJ1Kgo6FrJWr17tj6mdwon2dXznzp3+PhWQ9M/kSVu2bPHX0TlHjx71fR4+fNifc+DAAX+O3hv1o7CjcKTt5LX1qnPUh+oVbDZvnr1PjUHn65iKhR5dU8FP/WlM6kfHdL+6rl1H54+Njc3NrJa1BCTvfUuR91XvkfpVf2qnV7tv7YvOsfdQ4zBWr/vVmNRe5+ozl3vuucf/XZUiYxIdS/Zvn5PO1Tmq04yvfW6iPvN+dmnqT/3qHI2z2v++jD5XjU/nKUzfeuut8ZH51Jfa2T2n70F0bxqbxnnfffcV/ix0rv4e6nwV9atz1MbqtJ98rwAAaFv6ZmI90f/Rz3vCQJo95ePVN94KKkWf8iF62kEUjOYmuqMw4ccaBZ95dWkjI/OfaWznVaPr6Lja2TlRwPHXMclrWrFrRwFoXr2unaYnRaTb6RrJx5/pSRPJ4+mi88uU576T8ryvyb7UNv351frs9HdR9WqT7Ef3Xe1JG3k/a7WzvnWP1l5F52c9hs7k+ezS9N6qX40n6wkiWey9qdWv6Hj6HvTe6Wkfyfdi7dq1c9tFPgu9f1ZfrSTbAwDQzjr0X9H/+dWkf5aO/s/Wz85lufPuYfeVz9zkujddHtc0ZuLIC+47B8bc3Xdui2uK0ayZxlmEZtFUovAR19Sn2booLPiyWBq5l8VW5L4beV/z0N9FzX7aX9si71OeMem43Z+2dc9FP4fF/Ow0u68ShfG4prY89wwAAMKUuoZ6qTUSYhSeioYNtV/MMC2tFqalyH038r42osj7lGdMyfvTdiOfw2J+dlq6sbXAWvRmfQ4AAJzN2ipQA+1G65k1Iy2a+VYpEqgBAMDiKy1Q61/gyyhAFi29sC+6ibZV1+70hBD7cqO29cXFel9eBAAAzcUMNZYFhUmtn1awFG2rtLvB+Ckk+kUtMjw87F8BAEDrKO1LiR+/YbPbtP6SuKYxR178rfvh/Q83/KVEtC/NTFuYNlobfDasD9ZsvDAzDQBAayotUJeJQA0AAIDlopRADQAAAJytWEMNAAAABCBQAwAAAAEI1AAAAEAAAjUAAAAQgEANAAAABCBQAwAAAAEI1AAAAEAAAjUAAAAQgEANAAAABCBQAwAAAAEI1AAAAEAAAjUAAAAQgEANAAAABCBQAwAAAAEI1AAAAEAAAjUAAAAQgEANAAAABCBQAwAAAAE6KpF4u6r+/n7X09PjhoaG4pr57rx7ON7K9oWP9bqPXNcV7wEAAADto7QZ6k//znXujs9+dEGR7/3luPvJQ5N+GwAAAGgnpQXqTes73TVXXL6gyIff+w5CNQAAANpSU9ZQv/+dV7jP3/JBQjUAAADaTmmBWkuxs4odu+E9V7vfu/l6QjUAAADaSlOf8qGlH4RqAAAAtJOmBmohVAMAAKCdlBeoK1rasbBkHbvhPVGo/l8I1QAAAFj+mj5DbW7QTDWhGgAAAMvckgVqIVQDAABguVvSQC1lheqDBw+60dFRX7Q9PT3tX+tJnlOUnatrlaldxmTnAAAAtLPSArWWS2cVefbF37rHn32haulcu8YH60ZC9f79+113d7fr7e31vyJdRdtWV83evXvdunXr5p2jkgyM2u7o6JhXVLdjx4555+paqt+1a1dme1Hfyfpt27b5+qTFGFOoPGPSvdhYdN16Ywl9nwAAAFpJU2aof/Czh9x/OvDjmuX+w7/2bRWq85qcnHTbt293XV1dbnh42E1MTPii7VoU6HReX1+fGxkZcVNTU27Pnj2+PwVAm93t6enxx1UGBgZ8nc7T+Vu3bvXXGRwcnJsNVxu1Vb/Wt/oQ9a+2ovqhoSG/bRZrTCHyjkn3ouMam47pPHsvNB61U8g2Ie8TAABAy6nkEIWeShRy4r2Fvvbt71V+8cSRyvETJ4OK+lBfeUWBy0+E6zVN4826vShw+/oofMY1Z1h/UYiLa86w/lSi0BfXzhofH4+3Zul4Z2dnvHeGrpl13WaMqahGxqS/J1n16kP1aUXfJwAAgFa05GuoQ2hWMwpkczO0ybXDmuWMQqXfTtISBsma+dRsqWa7a637VRubGTY2u2qiMOjHoeUoxvZ1flozxlRUyJj03iepbZai7xMAAEAryh2otXxA/2yfVZaKwvRIvFxA49AyBK3dtXW8Op5myyDUJrlW14qWLFgoz6IQWI+uq3bJwGmhMev8ZoypqNAx5VH0fQIAAGhFHZqmjrerUjittR73vZ+5w/3RZ25y77zi8rimMU88+4L7TwfG3N13NvZFNAUzBT0VBTMFPgvcRl9y07H0LGqSZlTTM756DzQLrv7yzJ5qhlcz51p3rOBoX67LWt/drDEV0ciY9AONPoP0XykbZ9ZftSLvEwAAQEtSoA6ldc8PPvFs5bUTbwUV9VFkDbXWCesWtKY3LQpolSjwLViLq/W91c4RrR1WSYuCZc3z0nR9tdc64eR2lmaNqYhGxhSFen9Omo0zS5H3CQAAoBWVuobafrV4o6UoW3Kg2c80zXaqpJclaEZV9ZoV1Ux2mmZZdSyUrmHLGTTTa/tZmjUm0fuh/tKPsktrxfcJAACgFa38ViTebtgPfvawu/5dV7l1a9fENY2ZfvW4e+CxZ9ynbtwc19SmoLdv3z7/OjY25k6cOOEDo4LZzp07fZ2+VLd585n+Vq9e7ZdHaKmBigVuBTpb2qJlDlomomO7d+92Bw4c8PW6js5Xv2ov1b5wJzpfYV/j2rJlS9Wg2MwxqZ3eG/Wj8FptqUiRMWlbY1Lfamefg/rQ/ds4Va/X5BIcUds87xMAAEBLimeqg9iSj1ffeCuoFF3yoeUIugUtT9DyDm1biUJbZXh4OG65kJYrRMFt3jnqI3mOLSmpVnR+LVrCEIVW3zbPsoxmjUnvjcaV59F6ecaUPq6ia9iykWTRddOKvk8AAACtJNeXEuu58+5h95XP3OS6N4V9KXHiyAvuOwW/lGgzrbadNQNaj2ZQi56z2BgTAADA8rCsn0MtFqZF240EvlYMiYwJAABgeVj2gRoAAABYSqUF6vQTOxotAAAAwHLCDDUAAAAQoORArSnmkAIAAAAsL6U95aNMjf7qcQAAAKDZSgnUAAAAwNmKNdQAAABAAAI1AAAAEIBADQAAAAQgUAMAAAABCNQAAABAAAI1AAAAEIBADQAAAAQgUAMAAAABCNQAAABAAAI1AAAAEIBADQAAAAQgUAMAAAABCNQAAABAAAI1AAAAEIBADQAAAAQgUAMAAAABCNQAAABAw5z7/wEcaDK5+eIbTgAAAABJRU5ErkJggg==;imageBorder=default;" vertex="1" parent="fPGUKrxtvbkCLrTihuDX-1">
          <mxGeometry width="724" height="751" as="geometry" />
        </mxCell>
        <mxCell id="hOOozsf0WDHDU4rZZig0-27" value="" style="endArrow=classic;html=1;rounded=0;entryX=0;entryY=0.5;entryDx=0;entryDy=0;" edge="1" parent="fPGUKrxtvbkCLrTihuDX-1" target="hOOozsf0WDHDU4rZZig0-43">
          <mxGeometry width="50" height="50" relative="1" as="geometry">
            <mxPoint x="130" y="58" as="sourcePoint" />
            <mxPoint x="339" y="58.5654596100278" as="targetPoint" />
          </mxGeometry>
        </mxCell>
        <mxCell id="hOOozsf0WDHDU4rZZig0-29" value="" style="endArrow=classic;html=1;rounded=0;entryX=0;entryY=0.5;entryDx=0;entryDy=0;" edge="1" parent="fPGUKrxtvbkCLrTihuDX-1" target="hOOozsf0WDHDU4rZZig0-10">
          <mxGeometry width="50" height="50" relative="1" as="geometry">
            <mxPoint x="110" y="107" as="sourcePoint" />
            <mxPoint x="330" y="108" as="targetPoint" />
          </mxGeometry>
        </mxCell>
        <mxCell id="hOOozsf0WDHDU4rZZig0-30" value="" style="endArrow=classic;html=1;rounded=0;entryX=0;entryY=0.5;entryDx=0;entryDy=0;" edge="1" parent="fPGUKrxtvbkCLrTihuDX-1" target="hOOozsf0WDHDU4rZZig0-44">
          <mxGeometry width="50" height="50" relative="1" as="geometry">
            <mxPoint x="130" y="153" as="sourcePoint" />
            <mxPoint x="330" y="153" as="targetPoint" />
          </mxGeometry>
        </mxCell>
        <mxCell id="hOOozsf0WDHDU4rZZig0-31" value="" style="endArrow=classic;html=1;rounded=0;entryX=0;entryY=0.5;entryDx=0;entryDy=0;" edge="1" parent="fPGUKrxtvbkCLrTihuDX-1" target="hOOozsf0WDHDU4rZZig0-45">
          <mxGeometry width="50" height="50" relative="1" as="geometry">
            <mxPoint x="130" y="200" as="sourcePoint" />
            <mxPoint x="330" y="198" as="targetPoint" />
          </mxGeometry>
        </mxCell>
        <mxCell id="hOOozsf0WDHDU4rZZig0-32" value="" style="endArrow=classic;html=1;rounded=0;entryX=0;entryY=0.5;entryDx=0;entryDy=0;" edge="1" parent="fPGUKrxtvbkCLrTihuDX-1" target="hOOozsf0WDHDU4rZZig0-46">
          <mxGeometry width="50" height="50" relative="1" as="geometry">
            <mxPoint x="220" y="247" as="sourcePoint" />
            <mxPoint x="330" y="247" as="targetPoint" />
          </mxGeometry>
        </mxCell>
        <mxCell id="hOOozsf0WDHDU4rZZig0-33" value="" style="endArrow=classic;html=1;rounded=0;entryX=0;entryY=0.5;entryDx=0;entryDy=0;" edge="1" parent="fPGUKrxtvbkCLrTihuDX-1" target="hOOozsf0WDHDU4rZZig0-47">
          <mxGeometry width="50" height="50" relative="1" as="geometry">
            <mxPoint x="180" y="298" as="sourcePoint" />
            <mxPoint x="330" y="298" as="targetPoint" />
          </mxGeometry>
        </mxCell>
        <mxCell id="hOOozsf0WDHDU4rZZig0-34" value="" style="endArrow=classic;html=1;rounded=0;entryX=0;entryY=0.5;entryDx=0;entryDy=0;" edge="1" parent="fPGUKrxtvbkCLrTihuDX-1" target="hOOozsf0WDHDU4rZZig0-49">
          <mxGeometry width="50" height="50" relative="1" as="geometry">
            <mxPoint x="140" y="346" as="sourcePoint" />
            <mxPoint x="330" y="346" as="targetPoint" />
          </mxGeometry>
        </mxCell>
        <mxCell id="hOOozsf0WDHDU4rZZig0-35" value="" style="endArrow=classic;html=1;rounded=0;entryX=0;entryY=0.5;entryDx=0;entryDy=0;" edge="1" parent="fPGUKrxtvbkCLrTihuDX-1" target="hOOozsf0WDHDU4rZZig0-50">
          <mxGeometry width="50" height="50" relative="1" as="geometry">
            <mxPoint x="130" y="393" as="sourcePoint" />
            <mxPoint x="330" y="393" as="targetPoint" />
          </mxGeometry>
        </mxCell>
        <mxCell id="hOOozsf0WDHDU4rZZig0-36" value="" style="endArrow=classic;html=1;rounded=0;entryX=0;entryY=0.5;entryDx=0;entryDy=0;" edge="1" parent="fPGUKrxtvbkCLrTihuDX-1" target="hOOozsf0WDHDU4rZZig0-51">
          <mxGeometry width="50" height="50" relative="1" as="geometry">
            <mxPoint x="180" y="438" as="sourcePoint" />
            <mxPoint x="330" y="438" as="targetPoint" />
          </mxGeometry>
        </mxCell>
        <mxCell id="hOOozsf0WDHDU4rZZig0-37" value="" style="endArrow=classic;html=1;rounded=0;entryX=0;entryY=0.5;entryDx=0;entryDy=0;" edge="1" parent="fPGUKrxtvbkCLrTihuDX-1" target="hOOozsf0WDHDU4rZZig0-52">
          <mxGeometry width="50" height="50" relative="1" as="geometry">
            <mxPoint x="160" y="490" as="sourcePoint" />
            <mxPoint x="330" y="490" as="targetPoint" />
          </mxGeometry>
        </mxCell>
        <mxCell id="hOOozsf0WDHDU4rZZig0-38" value="" style="endArrow=classic;html=1;rounded=0;entryX=0;entryY=0.5;entryDx=0;entryDy=0;" edge="1" parent="fPGUKrxtvbkCLrTihuDX-1" target="hOOozsf0WDHDU4rZZig0-53">
          <mxGeometry width="50" height="50" relative="1" as="geometry">
            <mxPoint x="170" y="538" as="sourcePoint" />
            <mxPoint x="330" y="538" as="targetPoint" />
          </mxGeometry>
        </mxCell>
        <mxCell id="hOOozsf0WDHDU4rZZig0-39" value="" style="endArrow=classic;html=1;rounded=0;entryX=0;entryY=0.5;entryDx=0;entryDy=0;" edge="1" parent="fPGUKrxtvbkCLrTihuDX-1" target="hOOozsf0WDHDU4rZZig0-54">
          <mxGeometry width="50" height="50" relative="1" as="geometry">
            <mxPoint x="180" y="582" as="sourcePoint" />
            <mxPoint x="330" y="583" as="targetPoint" />
          </mxGeometry>
        </mxCell>
        <mxCell id="hOOozsf0WDHDU4rZZig0-40" value="" style="endArrow=classic;html=1;rounded=0;entryX=0;entryY=0.5;entryDx=0;entryDy=0;" edge="1" parent="fPGUKrxtvbkCLrTihuDX-1" target="hOOozsf0WDHDU4rZZig0-55">
          <mxGeometry width="50" height="50" relative="1" as="geometry">
            <mxPoint x="190" y="628" as="sourcePoint" />
            <mxPoint x="331" y="628" as="targetPoint" />
          </mxGeometry>
        </mxCell>
        <mxCell id="hOOozsf0WDHDU4rZZig0-41" value="" style="endArrow=classic;html=1;rounded=0;entryX=0;entryY=0.5;entryDx=0;entryDy=0;" edge="1" parent="fPGUKrxtvbkCLrTihuDX-1" target="hOOozsf0WDHDU4rZZig0-56">
          <mxGeometry width="50" height="50" relative="1" as="geometry">
            <mxPoint x="290" y="671" as="sourcePoint" />
            <mxPoint x="330" y="672" as="targetPoint" />
          </mxGeometry>
        </mxCell>
        <mxCell id="hOOozsf0WDHDU4rZZig0-42" value="" style="endArrow=classic;html=1;rounded=0;entryX=0;entryY=0.5;entryDx=0;entryDy=0;" edge="1" parent="fPGUKrxtvbkCLrTihuDX-1" target="hOOozsf0WDHDU4rZZig0-57">
          <mxGeometry width="50" height="50" relative="1" as="geometry">
            <mxPoint x="180" y="720" as="sourcePoint" />
            <mxPoint x="330" y="720" as="targetPoint" />
          </mxGeometry>
        </mxCell>
        <mxCell id="hOOozsf0WDHDU4rZZig0-10" value="Raw data of the supported datasets" style="rounded=0;whiteSpace=wrap;html=1;fontFamily=Verdana;fontSize=16;fontStyle=0" vertex="1" parent="fPGUKrxtvbkCLrTihuDX-1">
          <mxGeometry x="339" y="88.13" width="381" height="35.87" as="geometry" />
        </mxCell>
        <mxCell id="hOOozsf0WDHDU4rZZig0-43" value="&lt;font style=&quot;font-size: 16px;&quot;&gt;Source code of FL client application&lt;/font&gt;" style="rounded=0;whiteSpace=wrap;html=1;align=center;fontFamily=Verdana;fontSize=16;fontStyle=0" vertex="1" parent="fPGUKrxtvbkCLrTihuDX-1">
          <mxGeometry x="339" y="40.129999999999995" width="381" height="35.87" as="geometry" />
        </mxCell>
        <mxCell id="hOOozsf0WDHDU4rZZig0-44" value="Dockerfiles for building application images" style="rounded=0;whiteSpace=wrap;html=1;fontFamily=Verdana;fontSize=16;fontStyle=0" vertex="1" parent="fPGUKrxtvbkCLrTihuDX-1">
          <mxGeometry x="339" y="134.13" width="381" height="35.87" as="geometry" />
        </mxCell>
        <mxCell id="hOOozsf0WDHDU4rZZig0-45" value="Documentation" style="rounded=0;whiteSpace=wrap;html=1;fontFamily=Verdana;fontSize=16;fontStyle=0" vertex="1" parent="fPGUKrxtvbkCLrTihuDX-1">
          <mxGeometry x="339" y="181.13" width="381" height="35.87" as="geometry" />
        </mxCell>
        <mxCell id="hOOozsf0WDHDU4rZZig0-46" value="Output folder of experiment results" style="rounded=0;whiteSpace=wrap;html=1;fontFamily=Verdana;fontSize=16;fontStyle=0" vertex="1" parent="fPGUKrxtvbkCLrTihuDX-1">
          <mxGeometry x="339" y="229.13" width="381" height="35.87" as="geometry" />
        </mxCell>
        <mxCell id="hOOozsf0WDHDU4rZZig0-47" value="Kubernetes deployment files" style="rounded=0;whiteSpace=wrap;html=1;fontFamily=Verdana;fontSize=16;fontStyle=0" vertex="1" parent="fPGUKrxtvbkCLrTihuDX-1">
          <mxGeometry x="339" y="280.13" width="381" height="35.87" as="geometry" />
        </mxCell>
        <mxCell id="hOOozsf0WDHDU4rZZig0-49" value="Scripts used for generating certificates" style="rounded=0;whiteSpace=wrap;html=1;fontFamily=Verdana;fontSize=16;fontStyle=0" vertex="1" parent="fPGUKrxtvbkCLrTihuDX-1">
          <mxGeometry x="339" y="328.13" width="381" height="35.87" as="geometry" />
        </mxCell>
        <mxCell id="hOOozsf0WDHDU4rZZig0-50" value="Source code of FL server application" style="rounded=0;whiteSpace=wrap;html=1;fontFamily=Verdana;fontSize=16;fontStyle=0" vertex="1" parent="fPGUKrxtvbkCLrTihuDX-1">
          <mxGeometry x="339" y="374.13" width="381" height="35.87" as="geometry" />
        </mxCell>
        <mxCell id="hOOozsf0WDHDU4rZZig0-51" value="Git ignore file" style="rounded=0;whiteSpace=wrap;html=1;fontFamily=Verdana;fontSize=16;fontStyle=0" vertex="1" parent="fPGUKrxtvbkCLrTihuDX-1">
          <mxGeometry x="339" y="419.13" width="381" height="35.87" as="geometry" />
        </mxCell>
        <mxCell id="hOOozsf0WDHDU4rZZig0-52" value="Makefile for automated building" style="rounded=0;whiteSpace=wrap;html=1;fontFamily=Verdana;fontSize=16;fontStyle=0" vertex="1" parent="fPGUKrxtvbkCLrTihuDX-1">
          <mxGeometry x="339" y="472.13" width="381" height="35.87" as="geometry" />
        </mxCell>
        <mxCell id="hOOozsf0WDHDU4rZZig0-53" value="Readme" style="rounded=0;whiteSpace=wrap;html=1;fontFamily=Verdana;fontSize=16;fontStyle=0" vertex="1" parent="fPGUKrxtvbkCLrTihuDX-1">
          <mxGeometry x="339" y="520.13" width="381" height="35.87" as="geometry" />
        </mxCell>
        <mxCell id="hOOozsf0WDHDU4rZZig0-54" value="Environment variables for docker compose" style="rounded=0;whiteSpace=wrap;html=1;fontFamily=Verdana;fontSize=16;fontStyle=0" vertex="1" parent="fPGUKrxtvbkCLrTihuDX-1">
          <mxGeometry x="339" y="564.13" width="381" height="35.87" as="geometry" />
        </mxCell>
        <mxCell id="hOOozsf0WDHDU4rZZig0-55" value="Environment variables for docker compose" style="rounded=0;whiteSpace=wrap;html=1;fontFamily=Verdana;fontSize=16;fontStyle=0" vertex="1" parent="fPGUKrxtvbkCLrTihuDX-1">
          <mxGeometry x="339" y="610.13" width="381" height="35.87" as="geometry" />
        </mxCell>
        <mxCell id="hOOozsf0WDHDU4rZZig0-56" value="Docker compose deployment file" style="rounded=0;whiteSpace=wrap;html=1;fontFamily=Verdana;fontSize=16;fontStyle=0" vertex="1" parent="fPGUKrxtvbkCLrTihuDX-1">
          <mxGeometry x="339" y="653.13" width="381" height="35.87" as="geometry" />
        </mxCell>
        <mxCell id="hOOozsf0WDHDU4rZZig0-57" value="Environment variables for docker compose" style="rounded=0;whiteSpace=wrap;html=1;fontFamily=Verdana;fontSize=16;fontStyle=0" vertex="1" parent="fPGUKrxtvbkCLrTihuDX-1">
          <mxGeometry x="339" y="702.13" width="381" height="35.87" as="geometry" />
        </mxCell>
      </root>
    </mxGraphModel>
  </diagram>
</mxfile>
